<svg width="114" height="28" viewBox="0 0 114 28" fill="none" xmlns="http://www.w3.org/2000/svg">
<path d="M7.944 22.24C6.424 22.24 5.12 22.016 4.032 21.568C2.944 21.12 2.12 20.536 1.56 19.816C1.016 19.08 0.728 18.28 0.696 17.416C0.696 17.288 0.744 17.176 0.84 17.08C0.952 16.968 1.08 16.912 1.224 16.912H4.248C4.44 16.912 4.592 16.952 4.704 17.032C4.832 17.096 4.96 17.2 5.088 17.344C5.296 17.76 5.632 18.104 6.096 18.376C6.56 18.648 7.176 18.784 7.944 18.784C8.856 18.784 9.552 18.64 10.032 18.352C10.512 18.064 10.752 17.672 10.752 17.176C10.752 16.824 10.624 16.536 10.368 16.312C10.128 16.088 9.744 15.888 9.216 15.712C8.688 15.536 7.904 15.336 6.864 15.112C4.944 14.712 3.504 14.128 2.544 13.36C1.6 12.576 1.128 11.464 1.128 10.024C1.128 9.048 1.4 8.176 1.944 7.408C2.488 6.64 3.264 6.04 4.272 5.608C5.28 5.176 6.456 4.96 7.8 4.96C9.192 4.96 10.4 5.2 11.424 5.68C12.448 6.16 13.224 6.768 13.752 7.504C14.296 8.224 14.584 8.936 14.616 9.64C14.616 9.784 14.568 9.904 14.472 10C14.376 10.096 14.256 10.144 14.112 10.144H10.944C10.752 10.144 10.592 10.112 10.464 10.048C10.352 9.984 10.248 9.88 10.152 9.736C10.056 9.368 9.792 9.056 9.36 8.8C8.944 8.544 8.424 8.416 7.8 8.416C7.08 8.416 6.528 8.544 6.144 8.8C5.76 9.056 5.568 9.432 5.568 9.928C5.568 10.264 5.672 10.544 5.88 10.768C6.104 10.992 6.456 11.2 6.936 11.392C7.432 11.568 8.136 11.752 9.048 11.944C10.536 12.216 11.72 12.56 12.6 12.976C13.496 13.376 14.152 13.904 14.568 14.56C14.984 15.2 15.192 16.008 15.192 16.984C15.192 18.056 14.88 18.992 14.256 19.792C13.648 20.576 12.792 21.184 11.688 21.616C10.6 22.032 9.352 22.24 7.944 22.24ZM17.9301 22C17.7701 22 17.6261 21.944 17.4981 21.832C17.3861 21.704 17.3301 21.56 17.3301 21.4V5.56C17.3301 5.384 17.3861 5.24 17.4981 5.128C17.6261 5.016 17.7701 4.96 17.9301 4.96H20.7141C20.8901 4.96 21.0341 5.016 21.1461 5.128C21.2581 5.24 21.3141 5.384 21.3141 5.56V13.6L24.6501 9.928C24.6821 9.896 24.7381 9.84 24.8181 9.76C24.9141 9.68 25.0101 9.624 25.1061 9.592C25.2021 9.544 25.3141 9.52 25.4421 9.52H28.6581C28.8021 9.52 28.9221 9.576 29.0181 9.688C29.1301 9.784 29.1861 9.904 29.1861 10.048C29.1861 10.224 29.1221 10.36 28.9941 10.456L24.6741 15.112L29.5941 21.088C29.7221 21.216 29.7861 21.336 29.7861 21.448C29.7861 21.608 29.7301 21.744 29.6181 21.856C29.5221 21.952 29.3941 22 29.2341 22H25.9461C25.7381 22 25.5781 21.968 25.4661 21.904C25.3701 21.84 25.2501 21.736 25.1061 21.592L21.3141 17.032V21.4C21.3141 21.56 21.2581 21.704 21.1461 21.832C21.0341 21.944 20.8901 22 20.7141 22H17.9301ZM31.9451 7.72C31.7691 7.72 31.6251 7.664 31.5131 7.552C31.4011 7.44 31.3451 7.296 31.3451 7.12V4.96C31.3451 4.784 31.4011 4.64 31.5131 4.528C31.6251 4.416 31.7691 4.36 31.9451 4.36H34.8251C35.0011 4.36 35.1451 4.416 35.2571 4.528C35.3691 4.64 35.4251 4.784 35.4251 4.96V7.12C35.4251 7.296 35.3691 7.44 35.2571 7.552C35.1451 7.664 35.0011 7.72 34.8251 7.72H31.9451ZM31.9691 22C31.7931 22 31.6491 21.944 31.5371 21.832C31.4251 21.72 31.3691 21.576 31.3691 21.4V10.12C31.3691 9.944 31.4251 9.8 31.5371 9.688C31.6491 9.576 31.7931 9.52 31.9691 9.52H34.8011C34.9771 9.52 35.1211 9.576 35.2331 9.688C35.3451 9.8 35.4011 9.944 35.4011 10.12V21.4C35.4011 21.56 35.3451 21.704 35.2331 21.832C35.1211 21.944 34.9771 22 34.8011 22H31.9691ZM38.8363 22C38.6763 22 38.5323 21.944 38.4043 21.832C38.2923 21.704 38.2363 21.56 38.2363 21.4V5.56C38.2363 5.384 38.2923 5.24 38.4043 5.128C38.5323 5.016 38.6763 4.96 38.8363 4.96H41.6683C41.8443 4.96 41.9883 5.016 42.1003 5.128C42.2123 5.24 42.2683 5.384 42.2683 5.56V21.4C42.2683 21.576 42.2123 21.72 42.1003 21.832C41.9883 21.944 41.8443 22 41.6683 22H38.8363ZM45.7035 22C45.5435 22 45.3995 21.944 45.2715 21.832C45.1595 21.704 45.1035 21.56 45.1035 21.4V5.56C45.1035 5.384 45.1595 5.24 45.2715 5.128C45.3995 5.016 45.5435 4.96 45.7035 4.96H48.5355C48.7115 4.96 48.8555 5.016 48.9675 5.128C49.0795 5.24 49.1355 5.384 49.1355 5.56V21.4C49.1355 21.576 49.0795 21.72 48.9675 21.832C48.8555 21.944 48.7115 22 48.5355 22H45.7035ZM52.8347 22C52.6747 22 52.5307 21.944 52.4027 21.832C52.2907 21.704 52.2347 21.56 52.2347 21.4V5.8C52.2347 5.624 52.2907 5.48 52.4027 5.368C52.5307 5.256 52.6747 5.2 52.8347 5.2H59.0747C61.4267 5.2 63.2507 5.76 64.5467 6.88C65.8427 8 66.5227 9.624 66.5867 11.752C66.6027 12.216 66.6107 12.832 66.6107 13.6C66.6107 14.368 66.6027 14.976 66.5867 15.424C66.5067 17.648 65.8427 19.304 64.5947 20.392C63.3627 21.464 61.5627 22 59.1947 22H52.8347ZM59.0747 18.544C60.1307 18.544 60.9067 18.296 61.4027 17.8C61.8987 17.288 62.1627 16.48 62.1947 15.376C62.2267 14.912 62.2427 14.312 62.2427 13.576C62.2427 12.84 62.2267 12.248 62.1947 11.8C62.1627 10.728 61.8747 9.936 61.3307 9.424C60.8027 8.912 60.0107 8.656 58.9547 8.656H56.5547V18.544H59.0747ZM69.7504 22C69.5744 22 69.4304 21.944 69.3184 21.832C69.2064 21.72 69.1504 21.576 69.1504 21.4V10.12C69.1504 9.944 69.2064 9.8 69.3184 9.688C69.4304 9.576 69.5744 9.52 69.7504 9.52H72.5104C72.6864 9.52 72.8304 9.584 72.9424 9.712C73.0704 9.824 73.1344 9.96 73.1344 10.12V11.08C74.0144 10.04 75.1984 9.52 76.6864 9.52H77.7424C77.9184 9.52 78.0624 9.576 78.1744 9.688C78.2864 9.8 78.3424 9.944 78.3424 10.12V12.592C78.3424 12.752 78.2864 12.896 78.1744 13.024C78.0624 13.136 77.9184 13.192 77.7424 13.192H75.4144C74.7584 13.192 74.2464 13.376 73.8784 13.744C73.5264 14.096 73.3504 14.6 73.3504 15.256V21.4C73.3504 21.576 73.2864 21.72 73.1584 21.832C73.0464 21.944 72.9024 22 72.7264 22H69.7504ZM80.6248 7.72C80.4488 7.72 80.3048 7.664 80.1928 7.552C80.0808 7.44 80.0248 7.296 80.0248 7.12V4.96C80.0248 4.784 80.0808 4.64 80.1928 4.528C80.3048 4.416 80.4488 4.36 80.6248 4.36H83.5048C83.6808 4.36 83.8248 4.416 83.9368 4.528C84.0488 4.64 84.1048 4.784 84.1048 4.96V7.12C84.1048 7.296 84.0488 7.44 83.9368 7.552C83.8248 7.664 83.6808 7.72 83.5048 7.72H80.6248ZM80.6488 22C80.4728 22 80.3288 21.944 80.2168 21.832C80.1048 21.72 80.0488 21.576 80.0488 21.4V10.12C80.0488 9.944 80.1048 9.8 80.2168 9.688C80.3288 9.576 80.4728 9.52 80.6488 9.52H83.4808C83.6568 9.52 83.8008 9.576 83.9128 9.688C84.0248 9.8 84.0808 9.944 84.0808 10.12V21.4C84.0808 21.56 84.0248 21.704 83.9128 21.832C83.8008 21.944 83.6568 22 83.4808 22H80.6488ZM91.356 22C91.132 22 90.956 21.952 90.828 21.856C90.716 21.744 90.62 21.592 90.54 21.4L86.004 10.264L85.956 10.048C85.956 9.904 86.004 9.784 86.1 9.688C86.212 9.576 86.348 9.52 86.508 9.52H89.22C89.572 9.52 89.804 9.688 89.916 10.024L92.628 17.392L95.364 10.024C95.476 9.688 95.708 9.52 96.06 9.52H98.772C98.916 9.52 99.044 9.576 99.156 9.688C99.268 9.784 99.324 9.904 99.324 10.048L99.276 10.264L94.74 21.4C94.66 21.592 94.556 21.744 94.428 21.856C94.3 21.952 94.124 22 93.9 22H91.356ZM106.481 22.24C104.561 22.24 103.049 21.72 101.945 20.68C100.841 19.64 100.265 18.128 100.217 16.144V15.304C100.281 13.416 100.865 11.944 101.969 10.888C103.089 9.816 104.585 9.28 106.457 9.28C107.817 9.28 108.961 9.56 109.889 10.12C110.833 10.664 111.537 11.416 112.001 12.376C112.481 13.336 112.721 14.44 112.721 15.688V16.264C112.721 16.424 112.665 16.568 112.553 16.696C112.441 16.808 112.297 16.864 112.121 16.864H104.441V17.032C104.473 17.784 104.657 18.392 104.993 18.856C105.329 19.32 105.817 19.552 106.457 19.552C106.857 19.552 107.185 19.472 107.441 19.312C107.697 19.136 107.929 18.928 108.137 18.688C108.281 18.512 108.393 18.408 108.473 18.376C108.569 18.328 108.713 18.304 108.905 18.304H111.881C112.025 18.304 112.145 18.352 112.241 18.448C112.353 18.528 112.409 18.64 112.409 18.784C112.409 19.2 112.169 19.68 111.689 20.224C111.225 20.768 110.545 21.24 109.649 21.64C108.753 22.04 107.697 22.24 106.481 22.24ZM108.497 14.488V14.44C108.497 13.656 108.313 13.04 107.945 12.592C107.593 12.128 107.097 11.896 106.457 11.896C105.833 11.896 105.337 12.128 104.969 12.592C104.617 13.04 104.441 13.656 104.441 14.44V14.488H108.497Z" fill="#1B1B1B"/>
<rect x="42" y="9" width="4" height="3" fill="#1B1B1B"/>
<rect x="42" y="16" width="4" height="3" fill="#1B1B1B"/>
</svg>
